<svg width="32" height="32" viewBox="0 0 32 32" fill="none" xmlns="http://www.w3.org/2000/svg">
<mask id="path-1-inside-1_388_19" fill="white">
<path d="M32 16.1273C32 22.5192 24.8136 13.0908 15.9771 13.0908C7.14052 13.0908 0 22.5192 0 16.1273C0 9.73552 7.30287 18.909 16.1394 18.909C24.976 18.909 32 9.73552 32 16.1273Z"/>
</mask>
<path d="M20 16.1273C20 16.0068 20.0049 15.5399 20.1373 14.8583C20.2666 14.1931 20.5813 12.9871 21.4022 11.6279C22.2856 10.1652 23.6613 8.69367 25.5874 7.65607C27.455 6.64999 29.2381 6.37503 30.5182 6.35147C31.74 6.32898 32.6527 6.52926 33.0911 6.64359C33.5539 6.76426 33.8389 6.88324 33.8784 6.89973C33.901 6.90915 33.7062 6.82425 32.98 6.4342C31.842 5.82305 29.4055 4.44312 26.7525 3.3577C24.0048 2.23356 20.2911 1.09082 15.9771 1.09082L15.9771 25.0908C16.7397 25.0908 17.8322 25.5411 21.6245 27.5778C22.3488 27.9668 23.4666 28.5611 24.642 29.0512C25.584 29.444 27.9781 30.4023 30.9599 30.3474C34.9493 30.274 39.3349 28.3588 41.9457 24.0361C43.8766 20.8393 44 17.5993 44 16.1273L20 16.1273ZM15.9771 1.09082C11.6614 1.09082 7.94839 2.23434 5.20005 3.36129C2.54655 4.44934 0.114975 5.83143 -1.02037 6.4436C-1.74534 6.83449 -1.93679 6.91809 -1.91131 6.90742C-1.87019 6.89019 -1.58243 6.76953 -1.11596 6.6473C-0.674039 6.5315 0.245375 6.32872 1.4758 6.35149C2.76614 6.37537 4.55907 6.65418 6.43315 7.66944C8.36397 8.71542 9.73518 10.1945 10.6119 11.6546C11.4265 13.0113 11.7375 14.2126 11.8648 14.8718C11.9953 15.5481 12 16.0103 12 16.1273H-12C-12 17.5915 -11.8789 20.8199 -9.96378 24.0094C-7.36768 28.333 -2.98492 30.2731 1.03175 30.3474C4.02436 30.4028 6.42457 29.4362 7.3619 29.0435C8.53482 28.5522 9.65014 27.9566 10.37 27.5684C14.1419 25.5347 15.2235 25.0908 15.9771 25.0908L15.9771 1.09082ZM12 16.1273C12 16.2588 11.994 16.7301 11.8601 17.4132C11.7286 18.0841 11.4148 19.2652 10.6157 20.5944C9.75997 22.0179 8.4421 23.4432 6.60967 24.4726C4.82747 25.4738 3.10938 25.7924 1.84497 25.8521C0.637828 25.9091 -0.274202 25.7389 -0.727401 25.6346C-1.20181 25.5254 -1.49826 25.4114 -1.54926 25.3917C-1.59458 25.3742 -1.41189 25.4461 -0.695752 25.8113C0.410585 26.3756 2.86825 27.7058 5.48687 28.7386C8.21319 29.8139 11.888 30.909 16.1394 30.909L16.1394 6.909C15.2417 6.909 14.0894 6.41072 10.2078 4.43113C9.45875 4.04915 8.31437 3.47376 7.10259 3.00543C6.11203 2.6226 3.69414 1.73806 0.713317 1.87877C-3.21183 2.06406 -7.42883 4.02918 -9.95359 8.22899C-11.8603 11.4006 -12 14.6068 -12 16.1273H12ZM16.1394 30.909C20.4007 30.909 24.0706 29.8095 26.8007 28.7179C29.4229 27.6694 31.8491 26.3271 32.9398 25.7573C33.6479 25.3874 33.8098 25.3238 33.7454 25.3494C33.6839 25.3738 33.3689 25.498 32.8708 25.6162C32.3947 25.7291 31.4403 25.9126 30.1801 25.8512C28.8534 25.7865 27.0794 25.441 25.2631 24.3852C23.4073 23.3065 22.117 21.8398 21.3007 20.4326C20.5388 19.119 20.2471 17.9663 20.1273 17.3314C20.0043 16.6802 20 16.2376 20 16.1273L44 16.1273C44 14.654 43.8747 11.5175 42.0612 8.39085C39.6264 4.19324 35.4342 2.07884 31.3488 1.87966C28.3001 1.73103 25.8421 2.66428 24.8778 3.04772C23.6796 3.52415 22.5492 4.10787 21.827 4.48515C18.0696 6.44804 16.9828 6.909 16.1394 6.909L16.1394 30.909Z" fill="#030A15" mask="url(#path-1-inside-1_388_19)"/>
<mask id="path-3-inside-2_388_19" fill="white">
<path d="M16.1283 -2.38419e-06C22.5201 -2.38419e-06 13.0918 7.18637 13.0918 16.0229C13.0918 24.8595 22.5201 32 16.1283 32C9.73649 32 18.91 24.6971 18.91 15.8606C18.91 7.02401 9.73649 -2.38419e-06 16.1283 -2.38419e-06Z"/>
</mask>
<path d="M16.1283 12C16.0078 12 15.5408 11.9951 14.8592 11.8627C14.1941 11.7334 12.988 11.4187 11.6289 10.5978C10.1662 9.71436 8.69465 8.33874 7.65705 6.41264C6.65096 4.54505 6.37601 2.76194 6.35245 1.48179C6.32996 0.260003 6.53024 -0.652658 6.64456 -1.09113C6.76523 -1.55395 6.88422 -1.83886 6.9007 -1.8784C6.91012 -1.90099 6.82522 -1.70624 6.43518 -0.979983C5.82403 0.157962 4.44409 2.59449 3.35868 5.24749C2.23454 7.99515 1.0918 11.7089 1.0918 16.0229L25.0918 16.0229C25.0918 15.2603 25.5421 14.1678 27.5788 10.3755C27.9678 9.65117 28.5621 8.53341 29.0522 7.358C29.445 6.41603 30.4033 4.0219 30.3484 1.04009C30.2749 -2.94929 28.3597 -7.33485 24.0371 -9.94571C20.8403 -11.8766 17.6002 -12 16.1283 -12L16.1283 12ZM1.0918 16.0229C1.0918 20.3386 2.23531 24.0516 3.36226 26.7999C4.45032 29.4534 5.8324 31.885 6.44457 33.0204C6.83547 33.7453 6.91907 33.9368 6.9084 33.9113C6.89117 33.8702 6.77051 33.5824 6.64828 33.116C6.53247 32.674 6.3297 31.7546 6.35247 30.5242C6.37635 29.2339 6.65516 27.4409 7.67041 25.5668C8.7164 23.636 10.1955 22.2648 11.6556 21.3881C13.0123 20.5735 14.2136 20.2625 14.8728 20.1352C15.5491 20.0047 16.0113 20 16.1283 20L16.1283 44C17.5925 44 20.8209 43.8789 24.0104 41.9638C28.3339 39.3677 30.274 34.9849 30.3484 30.9682C30.4037 27.9756 29.4372 25.5754 29.0445 24.6381C28.5532 23.4652 27.9576 22.3499 27.5694 21.63C25.5357 17.8581 25.0918 16.7765 25.0918 16.0229L1.0918 16.0229ZM16.1283 20C16.2598 20 16.731 20.006 17.4141 20.1399C18.0851 20.2714 19.2662 20.5852 20.5954 21.3843C22.0189 22.24 23.4441 23.5579 24.4736 25.3903C25.4748 27.1725 25.7934 28.8906 25.8531 30.155C25.91 31.3622 25.7399 32.2742 25.6356 32.7274C25.5264 33.2018 25.4124 33.4983 25.3927 33.5493C25.3752 33.5946 25.4471 33.4119 25.8123 32.6958C26.3765 31.5894 27.7068 29.1318 28.7396 26.5131C29.8149 23.7868 30.91 20.112 30.91 15.8606L6.90998 15.8606C6.90998 16.7583 6.4117 17.9106 4.43211 21.7922C4.05013 22.5412 3.47474 23.6856 3.00641 24.8974C2.62358 25.888 1.73904 28.3059 1.87975 31.2867C2.06504 35.2118 4.03016 39.4288 8.22997 41.9536C11.4016 43.8603 14.6077 44 16.1283 44L16.1283 20ZM30.91 15.8606C30.91 11.5993 29.8104 7.92944 28.7188 5.19934C27.6704 2.57714 26.3281 0.150882 25.7583 -0.939828C25.3884 -1.64792 25.3248 -1.80978 25.3504 -1.74537C25.3748 -1.68392 25.499 -1.36894 25.6172 -0.870793C25.7301 -0.394748 25.9136 0.559712 25.8522 1.81993C25.7875 3.14664 25.4419 4.92058 24.3862 6.73689C23.3075 8.59265 21.8408 9.88304 20.4335 10.6993C19.12 11.4612 17.9673 11.7529 17.3324 11.8727C16.6812 11.9957 16.2386 12 16.1283 12L16.1283 -12C14.6549 -12 11.5184 -11.8747 8.39183 -10.0612C4.19422 -7.62642 2.07982 -3.43419 1.88064 0.651216C1.732 3.69986 2.66526 6.1579 3.0487 7.12223C3.52513 8.32043 4.10884 9.45078 4.48613 10.173C6.44902 13.9304 6.90998 15.0172 6.90998 15.8606L30.91 15.8606Z" fill="#030A15" mask="url(#path-3-inside-2_388_19)"/>
</svg>
